<?xml version="1.0" encoding="utf-8"?>
<!-- Generator: Adobe Illustrator 23.1.1, SVG Export Plug-In . SVG Version: 6.00 Build 0)  -->
<svg version="1.1" id="Capa_1" xmlns="http://www.w3.org/2000/svg" xmlns:xlink="http://www.w3.org/1999/xlink" x="0px" y="0px"
	 viewBox="0 0 345.6 345.6" style="enable-background:new 0 0 345.6 345.6;" xml:space="preserve">
<style type="text/css">
	.st0{fill:#FFFFFF;}
</style>
<g>
	<g>
		<path class="st0" d="M263.3,9.6c-6-6-14.1-9.4-22.6-9.4h-136V0c-8.5,0-16.6,3.4-22.6,9.4c-6,6-9.4,14.1-9.4,22.6v285.8
			c-0.1,7,2.1,13.8,6.4,19.4c6,7.7,16.5,10.5,25.6,6.8c8-3.5,14.6-9.5,18.9-17.2l49.1-78.3l49.1,78.3c4.3,7.6,10.9,13.7,18.9,17.2
			c9.1,3.7,19.6,0.9,25.7-6.8c4.3-5.5,6.5-12.4,6.3-19.4V32C272.7,23.6,269.3,15.5,263.3,9.6z M253.6,326.9c-0.8,1-1.9,1.8-3.1,2.2
			c-1.3,0.3-2.7,0.2-4-0.4c-4.7-2.2-8.5-5.9-11-10.4l-56-89.2c-0.7-1.1-1.6-2.1-2.7-2.7c-3.8-2.3-8.7-1-11,2.7l-56,89.1
			c-2.4,4.6-6.2,8.3-10.9,10.6c-1.3,0.5-2.7,0.7-4,0.4c-1.2-0.4-2.3-1.2-3.1-2.2c-1.9-2.7-2.9-5.9-2.7-9.2V32
			c0.1-8.7,7.1-15.7,15.8-15.8h68h68c8.6,0.2,15.5,7.2,15.5,15.8v285.7C256.5,321,255.5,324.2,253.6,326.9z"/>
	</g>
</g>
</svg>
