<?xml version="1.0" encoding="utf-8"?>
<!-- Generator: Adobe Illustrator 23.1.1, SVG Export Plug-In . SVG Version: 6.00 Build 0)  -->
<svg version="1.1" id="Capa_1" xmlns="http://www.w3.org/2000/svg" xmlns:xlink="http://www.w3.org/1999/xlink" x="0px" y="0px"
	 viewBox="0 0 345.6 345.6" style="enable-background:new 0 0 345.6 345.6;" xml:space="preserve">
<style type="text/css">
	.st0{fill:#FFFFFF;}
</style>
<g>
	<g>
		<path class="st0" d="M263.3,9.6c-6-6-14.1-9.4-22.6-9.4h-136V0c-8.5,0-16.6,3.4-22.6,9.4c-6,6-9.4,14.1-9.4,22.6v285.8
			c-0.1,7,2.1,13.8,6.4,19.4c6,7.7,16.5,10.5,25.6,6.8c8-3.5,14.6-9.5,18.9-17.2l49.1-78.3l49.1,78.3c4.3,7.6,10.9,13.7,18.9,17.2
			c9.1,3.7,19.6,0.9,25.7-6.8c4.3-5.5,6.5-12.4,6.3-19.4V32C272.7,23.6,269.3,15.5,263.3,9.6z"/>
	</g>
</g>
</svg>
